<svg xmlns="http://www.w3.org/2000/svg" width="1553" height="1554" style="background-color:white" stroke="#000" stroke-linecap="round" stroke-linejoin="round" fill="#fff" fill-rule="evenodd"><path d="M740 1c-3 0-12 1-21 1-76 5-156 24-230 53-145 58-270 159-357 288-15 23-38 61-38 64 0 1 9 1 29 1h29l4-6c16-27 42-64 62-87 19-24 46-52 69-73 61-56 136-104 212-135 75-31 152-49 232-54l19-1V26 0h-3l-7 1zm63 25v26l20 1c84 5 168 26 245 60 83 37 156 86 220 151 39 39 72 80 102 126l11 18h29c22 0 29 0 29-1 0-2-9-18-21-37-85-138-213-248-363-310C998 28 913 7 833 2l-23-1-7-1v26zm-12 93c-16 3-26 11-31 26-4 9-4 25 0 34 4 13 8 18 38 47 15 14 18 19 18 29 0 7-1 11-5 14-7 8-17 8-23 1-3-3-6-11-7-16l-1-6-5 1c-3 0-8 0-12 1-9 0-9 0-7 11 4 16 13 30 24 35 17 8 41 4 52-8 11-13 14-34 7-51-6-14-11-20-37-44-5-4-10-10-12-13-11-19-5-40 11-37 6 0 11 6 13 14 2 7 2 7 11 5 4-1 8-2 11-2 6-1 6-2 3-10-4-17-14-27-30-30-6-2-13-2-18-1zm-119 9l-37 5c0 1 2 14 4 31l6 38 6 45 8 49c1 11 1 12 3 12 1 0 16-2 33-4l36-6c4 0 5 0 4-2 0-1-1-7-2-13l-2-11-23 3c-14 2-25 3-25 3 0-1-1-6-2-13l-4-23c0-6-1-11-1-11 0-1 7-2 15-3 22-3 20-2 19-9 0-3-1-9-1-13l-1-7-6 1-18 2-12 2c0-1-2-12-5-32 0-6-1-12-2-13 0-2 0-3 1-3s12-2 25-4l23-3-1-4c-2-20-3-23-4-23l-37 6zm229 14l-9 40-10 46-6 29-10 47c1 0 15 4 21 5h4l2-6c0-3 2-9 3-14l4-20 9-41 10-46 7-30c2-7 3-14 3-14 0-1-3-2-24-7-1 0-2 1-4 11zm72 8c0 1-4 13-9 27l-16 42-33 95c-1 1 1 2 10 5 6 2 11 4 12 5 1 0 2-1 3-3 1-3 10-28 25-69l12-32c0-1 0 1 0 4 0 2-1 19-1 38l-2 54v21l13 5c7 2 13 4 13 4 1 0 7-17 15-39l26-74 19-53c0-1-1-1-14-6-10-3-11-3-12-1 0 2-6 17-12 35l-18 50-8 21-1 3v-5c1-2 1-10 1-17l5-82c0-11 1-19 1-19-1-1-7-3-14-6-12-4-14-4-15-3zm-440 14c-19 5-32 20-32 38 0 11 6 26 14 35 8 10 16 14 44 24l24 10c13 6 19 22 13 33-8 12-22 9-33-7-1-2-3-4-3-4-1 0-4 1-6 3-3 2-8 4-11 6l-5 2 3 5c4 8 15 19 23 23 12 6 25 5 39-1 13-7 20-17 22-30 1-13-2-27-10-36-10-13-23-21-47-28-22-7-32-14-37-25-3-6-3-15-1-19 3-4 10-7 14-6 4 0 13 8 14 11 1 1 1 2 2 2s21-13 21-14c0-2-5-9-9-13-3-2-8-5-11-7-6-3-8-3-15-4-4 0-10 1-13 2zm-99 52c-6 5-12 9-12 9 1 2 2 17 3 27l5 39c0 2 0 2-2 1 0-1-8-12-17-25l-16-24c-1-1-22 14-21 16l7 11 20 30 46 68 17 24c4 7 8 12 8 12 1 0 22-14 22-14 0-1-7-11-16-24l-15-23-1-8c-1-4-1-8-1-9 0 0 8 5 16 11l31 21 16 11 5-3c13-8 21-14 20-15l-47-31-46-31-1-8-2-15c-2-13-7-56-7-57-1 0-6 3-12 7zm642 74l-53 71c0 1 35 27 40 30 15 7 36 4 48-9 7-7 63-82 65-87 6-14 3-34-7-45-3-3-39-30-40-30l-53 70zm67-26c3 2 7 6 8 8 2 3 2 10 0 14-1 2-14 20-30 41-25 33-29 38-33 40-7 4-12 2-28-10 0-1 16-23 37-50 26-35 37-50 38-49 1 0 4 3 8 6zm-842 60l-11 12c-11 11-11 9-1 21l101 131c1 0 18-19 18-20 0 0-5-7-12-15-6-9-12-16-12-17l9-11 9-10 17 12 17 11 10-9 9-11s-2-2-4-3-19-12-38-25l-45-30-36-23-26-17c0-1-3 1-5 4zm31 43c4 3 12 8 18 12 28 20 30 21 29 23l-12 12c-1 0-9-9-18-21l-21-26c-2-2-4-5-4-5 1 0 5 2 8 5zm892-42c-3 1-7 3-10 4-4 3-70 63-80 73-2 2-6 8-8 11-2 6-3 7-3 18s1 12 3 17c10 20 33 30 54 22 7-3 12-7 39-31l28-26c26-24 28-27 31-41 2-12-1-24-10-34-10-13-29-18-44-13zm19 26c4 2 8 7 8 11 1 4-2 11-5 15-2 1-7 5-10 9l-16 14-15 14c-33 31-36 32-44 31-6-2-12-9-12-15 0-4 3-10 8-14 2-2 19-18 37-34 18-17 34-31 36-32 3-1 9-1 13 1zM843 456c-18 2-30 4-51 9-32 6-59 13-63 15-9 4-13 9-13 15-1 5 2 16 13 53 6 20 7 26 6 27 0 1-3 1-12-1-3-1-11-3-19-3-30-4-68 2-95 16-25 13-50 36-67 61-6 8-15 27-17 34-1 3-2 4-3 4s-2 1-3 2c0 2-1 2-3 2s-4 1-6 3-2 2-3 1c0-1 0-5 1-9 2-14 2-15 0-19-4-7-13-8-23-3-11 6-28 20-38 33-19 23-27 41-34 76-3 13-3 21 0 32 2 10 5 15 12 22 5 4 6 6 6 8 0 3-1 3-3 3l-4 1-3 13-7 28c-5 20-5 24-3 26 1 1 4 1 5 1 7 0 8 1 9 7l1 5-12 15c-6 8-11 15-11 16s-1 3-3 5c-1 2-2 4-2 6s-1 4-1 5v14c0 14 1 15 8 15s9-5 9-26l1-8 5-6 9-10 4-4v8c0 4 0 10 1 13s1 5-1 14c-1 6-2 14-2 17-1 6 0 7 2 8 3 3 9 3 12 0 10-10 14-38 11-67 0-9 0-9 3-15s3-6 7-6c8 0 7 2 11-39 3-23 3-24-1-28s-4-7 0-9c4-3 9-9 11-14 2-4 8-43 8-48 0 0 2-1 6-1h6v10c0 7 0 11 1 14 2 3 9 9 11 9 1 0 2 1 4 3l4 2c1 0 3 4 6 8 15 29 37 53 65 70 5 3 10 6 11 7 4 4 15 7 29 10 7 1 13 2 14 3 0 0-1 2-3 4s-4 4-4 5-1 2-3 3-2 1-9-5c-5-4-7-6-12-7-4-1-11-4-16-7l-10-5-7 3c-8 5-14 9-21 18-9 12-15 24-19 46-2 8-2 12-2 25 1 11 0 15-1 18 0 2-1 7-2 11-1 13-1 14-7 22-16 22-23 45-17 57 4 9 19 16 41 19 9 1 32-2 38-5 8-4 18-22 25-41 5-15 4-24-6-35-7-8-8-11-6-19 1-4 4-9 6-13 5-9 15-26 22-40l3-7 3 4c2 2 6 5 8 5 1 1 5 3 7 4 3 2 4 2 10 2 5 0 7-1 9-2 2-3 12-3 15 0 1 2 3 2 9 2s7 0 10-2c2-2 4-3 6-3l4 1 3 11c3 12 7 25 10 28 2 3 3 3 6 3s4 1 4 2c1 2 2 3 2 4 2 2 5 10 5 13 0 0-2 2-4 3l-5 2v9c1 8 1 11 3 16 4 9 3 11-6 20-4 4-8 9-10 13-3 6-4 7-4 15 0 10 2 16 9 22s18 14 25 16c8 3 23 5 37 3 22-2 46-10 49-16 2-3 0-14-4-22-3-7-8-12-17-21-18-15-19-16-14-21 4-3 5-8 5-20 0-18-3-27-9-27-4 0-4-1 0-4 7-5 9-10 11-27 3-32-2-59-13-72-3-4-11-10-16-11-4-2-8-1-14 1h-10c-13 0-18 2-25 9-4 4-6 5-9 5s-3 0-3-2c0-3-3-8-4-8-3 0 2-3 8-5l18-5c12-3 15-5 23-12l15-12c12-9 25-22 32-31 4-4 6-7 7-7l6 10c3 6 6 12 7 13s3 6 5 10c5 8 23 35 33 49 18 25 44 54 71 82 15 15 20 18 25 21 10 5 19 8 26 7 10-1 25-13 40-33 15-19 33-48 42-65 4-9 9-17 9-18 3-3 14-29 18-41 1-3 3-10 4-15s3-13 4-17c2-5 3-13 4-19 0-6 1-12 2-14 0-1 1-18 1-37 0-32 0-34-2-41-3-10-4-13-6-24-2-14-6-27-12-46-3-9-5-18-5-19 0-9-44-99-60-122-9-14-25-28-43-38-8-5-6-4-24-11-19-7-33-11-49-14-17-3-62-4-81-1zM732 621c5 1 10 3 11 3 3 2 4 4 11 31l17 64c3 11 7 22 9 29 1 1 3 6 4 9l2 7-9 8c-7 7-11 10-19 14-12 6-17 8-31 9-10 1-13 1-24 0-7-1-14-3-16-4s-6-3-9-4c-9-3-14-6-14-7 0 0-4-3-8-7-21-17-34-42-35-68-1-25 7-46 25-64 7-7 12-11 21-15 18-8 25-9 43-8 11 0 15 1 22 3zm-36 28v3c0 2-1 2-3 2h-5c-1 0-3 1-4 2-2 2-4 3-5 4s-1 1 0 5c2 5 2 6-2 6h-3v8c0 4 0 7 1 8 0 0 1 2 0 3 0 3 0 3 3 4s4 3 4 8c0 3 0 3 3 3 3-1 3-1 3 2v3h6 7v3 4l6-1h10c4 0 4-1 5-3 0-3 0-3 5-3s6 0 6-2c1-2 2-3 3-3 2-1 3-1 2-7 0-6 0-6 2-6 3 0 3 0 3-7 1-10 0-13-3-14-2 0-5-6-4-8 0-2-2-4-4-3-2 0-2 0-2-2s-1-3-6-3c-5-1-6-2-6-4 0-1-1-2-1-2h-21zM62 473C10 595-9 724 4 855c8 78 25 148 57 224l6 15h121 122c0-1-1-3-3-5-11-16-24-38-35-61-32-64-50-130-57-204-2-19-2-75 0-93 7-76 25-141 57-206 9-18 24-44 33-57l4-7c1-1-24-1-120-1H67l-5 13zm1184-8l8 13c76 119 103 269 75 412-10 50-28 100-52 146-7 14-21 39-28 49l-6 8c0 1 24 1 121 1h122l5-12c33-76 53-158 60-248 2-20 2-93 0-114-5-60-15-116-32-169-8-28-23-68-32-88l-1-3h-122-121l3 5zm-946 653l-59 45c-12 10-14 12-13 13l14 18c14 18 18 22 28 25 13 4 29-2 42-15 9-9 12-15 13-24v-8l3 1c4 2 13 2 17 0 14-5 26-17 29-31 2-5 2-7 1-13-1-4-3-9-4-12-3-5-24-34-25-34s-21 16-46 35zm50 9c1 2 2 4 2 6 0 6-9 16-18 19-6 2-10 1-15-4-4-4-7-9-6-9 0 0 7-6 15-12l14-11 4 4c1 2 4 5 4 7zm-53 28c4 5 8 13 8 15 0 6-9 17-17 22-5 2-12 3-16 1s-12-11-12-13l2-2c1-1 9-7 17-13l16-12 2 2zm886-41c-5 6-9 11-9 12 0 0 6 8 14 16l50 57 37 40s11-13 13-17c1-1-2-4-8-11l-12-13-2-3 6-8 8-9c0-1 7 3 16 8 8 5 15 8 15 8 4-4 14-17 14-18 0 0-38-22-58-32l-38-22-36-20c-1 0-5 5-10 12zm54 38c13 7 24 14 24 14-1 1-3 4-5 7-4 5-5 6-6 5l-37-39c-2-3-4-4 24 13zm-1143-5c0 2 21 38 35 59 72 108 168 195 283 257 97 52 215 85 322 90h16v-25-25c-1-1-9-1-18-2-27-2-59-5-86-10-39-7-91-21-124-34l-13-5c-62-25-127-62-183-107-31-24-75-67-100-96-24-28-55-71-70-96l-4-7h-29c-17 0-29 1-29 1zm289 13l-39 46c-15 17-28 33-29 36-2 4-3 6-3 15 0 13 2 17 10 25 9 9 19 12 32 10 10-2 15-6 28-21l67-77c1-1-2-4-8-9l-9-8-10 13-39 44-29 34c-2 0-5 1-7 1-5 0-6 0-9-4-4-3-4-4-4-8 0-2 0-5 1-6 1-2 38-46 67-78 5-6 10-12 10-13l-16-14s-6 7-13 14zm1013-7c-17 30-50 75-79 108-15 16-45 46-61 60-119 105-270 169-429 180l-22 1c-2 0-2 2-2 26v25h6c34 0 97-8 143-19 128-30 245-91 344-180 16-14 48-46 61-61 38-42 74-93 99-140l4-7h-30-30l-4 7zm-260 10c-8 4-15 11-19 18-2 5-3 7-3 14s1 9 3 14c4 9 13 18 21 22s19 6 42 7c9 0 19 1 22 2 12 3 20 15 15 25-4 9-15 9-27 1l-3-3c-1 0-4 3-8 7l-7 8 5 4c5 5 11 8 19 11 12 3 23 0 34-10 8-8 11-15 11-25 0-16-10-30-26-37-11-4-15-5-34-5-18-1-25-2-31-5-8-4-15-14-14-20 1-2 2-5 4-6 4-5 11-5 18 0l5 3 6-8c4-4 7-8 7-9 0 0-2-2-5-4-10-8-24-9-35-4zm-678 69c-79 89-82 93-81 95 1 1 18 11 18 11s6-6 12-13l11-13c2 0 19 12 19 13 1 0-2 8-6 16-3 9-6 16-6 16l10 6c10 6 10 6 11 4l4-11 12-30 32-77c4-10 7-18 7-19 1-2-4-6-21-16l-4-2-18 20zm1 45c-6 15-12 26-12 26-1 0-4-2-8-4l-6-4 7-8 30-36c0 1-5 12-11 26zm604-56c-6 4-12 8-12 9s3 9 7 19l27 64 21 51c3 6 3 6 5 5 1-1 5-4 9-6l8-6c0-1-3-7-6-14l-6-16c-1-1 0-2 8-8 6-3 10-6 11-6l11 13c6 7 12 12 12 12 1 0 14-8 20-12 0 0-2-2-4-5l-14-15-84-93s-6 4-13 8zm56 75c-1 2-12 8-13 7-1 0-4-8-9-17l-11-25c-2-4-3-7-3-8s8 9 18 21c11 12 19 22 18 22zm-585-42c-1 3-5 11-8 17l-21 47-20 44c-6 12-10 22-9 22 1 1 19 9 19 9s9-18 28-61l10-22c2-4 2-3-2 30l-7 65c0 1 1 3 5 4l11 5c5 2 5 2 6 1 1-2 21-46 30-66l17-36 13-30 2-3-8-4c-5-2-10-4-11-4-1-1-3 3-14 26l-29 62s1-10 3-22l11-79c0-1-16-9-21-10-2-1-3 0-5 5zm470 0c-8 4-10 5-10 7-1 2-2 15-2 29l-2 27c-1 0-4-7-8-17l-11-23-3-7-10 5-10 5 24 55 19 41s2 4 4 9l9 20c3 6 5 11 6 11 2 0 19-9 19-10 0 0-4-10-10-22l-9-21 1-7v-7l12 11 23 23 12 11 12-5c6-3 11-5 12-5 0 0-7-7-16-15l-45-44c-9-8-9-8-9-12 1-2 1-17 2-32 0-16 1-29 1-30 1-2 1-2-11 3zm-368 33c0 1-4 11-9 22l-36 88-10 24c-1 2-2 5-2 5 0 1 22 6 22 5 1 0 3-7 7-15 3-9 6-16 7-16 0 0 21 4 23 5 0 0-1 7-2 17 0 9-1 17 0 17 0 1 19 5 21 5 1 0 2-6 3-30l5-95c1-14 2-25 1-26-1 0-28-7-29-7s-1 1-1 1zm7 50l-2 27-2 17c-1 1-3 1-8 0l-8-2c0-1 4-11 10-28l7-19c2-4 3-7 4-6 0 0 0 5-1 11zm259-48c-2 1-10 3-19 4l-15 4 1 3c0 1 1 5 1 9l4 14 14 64 14 55c0 1 4 0 8-1 5-1 9-2 10-2s2 0 2-1c1-1-2-13-5-28-4-14-6-26-6-27 1 0 11-3 13-3 1 0 5 7 15 26 8 16 13 25 14 25 2 0 21-4 21-5 1 0-5-12-13-26-19-37-17-33-14-39 5-10 5-16 0-35-5-23-9-31-20-35-4-2-6-3-13-3-5 0-10 1-12 1zm17 24c3 3 4 5 7 18 3 14 3 17 1 22-2 3-4 4-13 7-8 2-9 2-9-1 0-1-2-11-5-23l-5-21c0-1 3-1 6-2 8-2 15-2 18 0zm-77-12l-27 3c-10 0-17 1-18 1a154.41 154.41 0 0 0 1 17l4 44 6 77c0 6 1 10 1 11 0 0 11 0 24-1l31-3h8v-7c0-3 0-9-1-11v-5l-9 1-18 1c-5 1-11 1-12 1h-3l-1-11c0-6-1-15-1-20-1-5-1-9-1-9 0-1 7-1 16-2l15-1-1-3c0-1 0-6-1-11v-8h-6c-4 0-11 1-15 1-9 1-9 1-10-1 0-3-2-29-2-34v-6h9l20-1c5-1 10-1 11-2v-11-11h-5c-2 0-9 1-15 1zm-126 1c0 1-1 10-2 21l-3 46-4 48-2 27v7h11c5 1 10 1 10 1 1-1 3-28 4-45l1-11 13 1c12 0 13-1 18-3 7-4 14-11 17-18 2-4 3-8 4-18 2-26 1-33-6-42s-16-12-41-13l-14-1c-5-1-6-1-6 0zm41 27c1 1 3 3 4 5 2 3 2 5 0 18-1 17-2 19-9 22-4 2-19 1-19-2 0-1 1-9 1-17 1-9 2-19 2-22s0-6 1-6c1-2 17 0 20 2z" stroke="none" fill="#2f3193" fill-rule="nonzero"/></svg>